<?xml version="1.0" standalone="no"?><!DOCTYPE svg PUBLIC "-//W3C//DTD SVG 1.1//EN" "http://www.w3.org/Graphics/SVG/1.1/DTD/svg11.dtd"><svg t="1560999299220" class="icon" style="" viewBox="0 0 1024 1024" version="1.1" xmlns="http://www.w3.org/2000/svg" p-id="5039" xmlns:xlink="http://www.w3.org/1999/xlink" width="200" height="200"><defs><style type="text/css"></style></defs><path d="M354.3 287.7c-7.8 14.6-19.6 24.1-32 25.3l-184.2 26.7c-71 11.8-99 100.3-48.4 153L222.1 626c10.7 11.1 15.7 26 13.1 39.6l-32.1 189c-11.4 73.9 62.4 129.8 125 94.3L492 860.4c13.3-7.7 26.8-7.7 39.5-0.3l164.7 89c62.2 35.3 136-20.7 124.7-94.2l-32-188.9c-1.4-14.8 3.4-30.1 13.3-40.3L934 493c50.9-52.9 22.9-141.4-47.7-153.2l-183.8-26.7c-14.6-3.1-27.3-12.6-32.5-24.7l-81.3-173.7c-31.1-67.7-122.3-67.7-153.5 0.1l-80.9 172.9m0 0z" fill="#FFE146" p-id="5040"></path></svg>